<?xml version="1.0" standalone="no"?>
<!DOCTYPE svg PUBLIC "-//W3C//DTD SVG 20010904//EN"
 "http://www.w3.org/TR/2001/REC-SVG-20010904/DTD/svg10.dtd">
<svg version="1.0" xmlns="http://www.w3.org/2000/svg"
 width="504.000000pt" height="504.000000pt" viewBox="0 0 504.000000 504.000000"
 preserveAspectRatio="xMidYMid meet">
<metadata>
Created by potrace 1.11, written by Peter Selinger 2001-2013
</metadata>
<g transform="translate(0.000000,504.000000) scale(0.100000,-0.100000)"
fill="#000000" stroke="none">
<path d="M3790 4520 c8 -5 20 -10 25 -10 6 0 3 5 -5 10 -8 5 -19 10 -25 10 -5
0 -3 -5 5 -10z"/>
<path d="M3830 4506 c0 -2 7 -7 16 -10 8 -3 12 -2 9 4 -6 10 -25 14 -25 6z"/>
<path d="M3910 4473 c8 -3 17 -9 20 -12 8 -10 82 -42 86 -38 5 5 -98 57 -111
56 -6 0 -3 -3 5 -6z"/>
<path d="M3943 4225 c-17 -24 -23 -26 -41 -16 -33 18 -40 -8 -9 -33 20 -17 24
-25 16 -39 -11 -19 -3 -41 12 -31 5 3 16 0 24 -6 12 -10 17 -7 25 14 8 23 13
25 29 16 27 -14 38 6 16 30 -13 14 -14 23 -6 39 12 21 0 38 -18 26 -6 -3 -14
2 -19 11 -8 14 -12 12 -29 -11z"/>
<path d="M3795 4100 c-3 -5 -4 -10 0 -10 3 0 1 -9 -5 -21 -9 -16 -17 -19 -43
-14 -84 17 -98 2 -38 -38 l40 -27 -15 -35 c-13 -32 -13 -36 2 -42 11 -4 22 1
30 12 13 18 14 17 14 -7 0 -41 18 -43 37 -3 16 34 18 35 59 29 55 -8 64 9 21
38 -34 22 -34 22 -20 56 16 39 4 67 -19 44 -13 -13 -29 -16 -27 -4 5 30 -21
46 -36 22z"/>
<path d="M1890 3923 c-220 -31 -361 -72 -512 -148 -187 -93 -370 -242 -494
-400 -207 -267 -314 -571 -314 -900 0 -482 223 -911 621 -1197 130 -93 267
-158 440 -208 137 -40 278 -58 430 -55 356 9 697 148 958 392 l85 79 -54 49
c-29 28 -58 55 -64 60 -20 18 -241 220 -246 225 -3 3 -19 18 -37 33 l-31 29
-48 -47 c-107 -103 -269 -187 -422 -220 -100 -21 -315 -14 -412 14 -505 147
-767 686 -571 1175 142 354 513 575 895 534 194 -21 361 -95 506 -226 l55 -50
105 96 c58 53 110 101 115 106 6 6 55 51 109 101 l99 90 -87 82 c-206 194
-466 323 -756 373 -63 11 -320 20 -370 13z"/>
<path d="M3832 3878 c-7 -7 -12 -17 -12 -22 -1 -31 -16 -37 -58 -22 -35 13
-42 13 -52 0 -10 -11 -8 -15 6 -21 11 -3 31 -15 47 -25 l27 -20 -19 -27 c-15
-21 -17 -31 -9 -39 9 -9 16 -8 30 5 16 15 18 15 18 0 0 -29 18 -28 36 3 12 19
26 30 41 30 30 0 37 16 14 32 -19 13 -19 14 0 53 21 42 11 70 -12 38 -23 -31
-37 -35 -32 -9 6 27 -9 40 -25 24z"/>
<path d="M4379 3772 c-10 -30 -11 -30 -44 -16 -25 10 -36 11 -41 2 -6 -10 9
-27 45 -47 11 -7 10 -13 -4 -34 -20 -31 -12 -55 13 -35 9 7 13 9 10 3 -3 -5 0
-16 8 -22 12 -12 25 -4 30 17 4 23 18 38 30 33 8 -3 21 -2 30 1 16 6 16 8 0
24 -19 21 -21 43 -5 59 17 17 -9 27 -28 11 -9 -7 -14 -8 -10 -2 4 7 0 17 -8
24 -13 11 -17 8 -26 -18z"/>
<path d="M3951 3681 c-6 -11 -11 -26 -11 -35 0 -12 -5 -13 -30 -4 -17 5 -38 7
-48 3 -15 -5 -12 -10 16 -33 l33 -27 -16 -38 c-17 -40 -6 -50 25 -22 15 14 17
12 14 -22 -1 -21 -2 -51 -3 -67 l-1 -30 -35 38 c-35 39 -61 41 -49 4 3 -12 8
-36 9 -54 3 -31 1 -34 -35 -44 -22 -6 -42 -15 -45 -20 -6 -10 31 -29 56 -28
46 3 59 -3 59 -25 0 -28 -51 -115 -128 -217 -48 -63 -144 -182 -162 -200 -8
-8 -73 -83 -119 -138 -43 -52 -71 -66 -71 -37 0 22 29 88 42 96 6 4 9 13 6 21
-6 15 -123 98 -138 98 -6 0 -10 4 -10 8 0 5 -19 17 -42 28 -24 10 -49 24 -56
31 -7 7 -18 13 -23 13 -5 0 -32 11 -59 24 -109 53 -225 65 -301 33 -40 -16
-119 -83 -119 -100 0 -6 -6 -18 -14 -26 -34 -38 -55 -133 -52 -231 2 -81 7
-102 30 -145 58 -106 154 -149 278 -124 74 16 83 18 154 44 66 25 81 29 139
39 33 6 32 -2 -10 -65 -47 -69 -111 -145 -235 -276 -127 -135 -187 -218 -169
-239 8 -9 16 -9 40 3 62 31 79 23 79 -38 0 -20 7 -42 15 -49 12 -10 18 -6 36
24 11 20 24 37 27 37 4 1 17 3 30 4 34 3 40 14 43 70 3 58 26 111 67 151 85
84 192 121 207 72 7 -20 8 -77 2 -108 -4 -26 -44 -96 -81 -144 -41 -54 -55
-99 -61 -195 -5 -67 -4 -70 26 -95 16 -14 36 -38 44 -52 13 -25 11 -32 -15
-83 -15 -31 -46 -85 -68 -121 -68 -108 -83 -141 -89 -191 -5 -45 -3 -51 26
-78 18 -17 48 -36 67 -43 19 -6 34 -14 34 -18 0 -3 -53 -5 -117 -6 -187 0
-313 -16 -313 -39 0 -12 66 -32 115 -36 87 -6 637 -4 709 3 40 4 76 13 84 22
28 28 -30 40 -240 50 -92 4 -108 9 -108 30 0 11 -56 64 -92 87 -14 9 -13 61 2
89 12 25 92 131 120 161 33 35 66 77 98 124 31 46 37 50 74 50 26 0 44 5 49
15 48 88 130 302 144 375 22 113 24 189 9 261 -16 80 -51 145 -111 208 l-46
49 17 61 c9 34 18 66 20 71 2 6 7 21 11 34 10 29 139 286 163 323 9 14 30 48
46 75 46 75 65 99 154 189 45 46 82 88 82 94 0 5 -16 10 -35 10 -83 0 -142 74
-122 152 9 37 10 38 48 33 49 -6 58 9 19 32 -24 13 -30 23 -25 38 3 11 7 25 8
30 2 6 6 15 10 21 13 22 -7 24 -29 4 l-21 -21 1 22 c1 29 -20 36 -33 10z"/>
<path d="M4180 3644 c-6 -14 -13 -23 -18 -20 -16 10 -92 17 -92 8 0 -5 18 -21
40 -36 22 -14 40 -29 40 -32 0 -3 -9 -19 -20 -34 -24 -34 -9 -51 21 -24 19 17
20 17 26 -4 3 -12 9 -22 13 -22 8 0 20 24 19 38 0 10 43 20 56 13 44 -25 52 2
10 34 l-35 26 21 30 c27 38 12 62 -19 31 -20 -20 -20 -20 -25 -1 -7 27 -26 24
-37 -7z"/>
</g>
</svg>
